<?xml version="1.0" encoding="UTF-8"?>
<!DOCTYPE svg PUBLIC "-//W3C//DTD SVG 1.1//EN" "http://www.w3.org/Graphics/SVG/1.1/DTD/svg11.dtd">
<svg xmlns="http://www.w3.org/2000/svg" version="1.1" width="200px" height="200px" style="shape-rendering:geometricPrecision; text-rendering:geometricPrecision; image-rendering:optimizeQuality; fill-rule:evenodd; clip-rule:evenodd" xmlns:xlink="http://www.w3.org/1999/xlink">
<g><path style="opacity:0.939" fill="#3f00ff" d="M -0.5,65.5 C -0.5,63.1667 -0.5,60.8333 -0.5,58.5C 24.0498,61.0657 48.0498,58.5657 71.5,51C 80.2945,48.3604 87.1279,43.1938 92,35.5C 96.017,41.3687 99.1837,47.702 101.5,54.5C 90.3803,55.2966 80.547,59.6299 72,67.5C 68.6989,73.0781 67.6989,79.0781 69,85.5C 72.7202,97.205 78.8869,107.372 87.5,116C 85.1667,118.333 82.8333,120.667 80.5,123C 83.3525,124.963 86.0192,124.63 88.5,122C 90.5571,120.281 92.2237,118.281 93.5,116C 87.2419,109.072 81.7419,101.572 77,93.5C 73.4238,86.4072 72.7572,79.0738 75,71.5C 76.8333,69.6667 78.6667,67.8333 80.5,66C 87.8013,63.0156 94.968,59.8489 102,56.5C 113.526,85.6324 117.193,115.632 113,146.5C 108.263,158.381 99.4299,164.048 86.5,163.5C 63.4569,162.562 44.6236,153.228 30,135.5C 14.2964,114.548 4.12971,91.2146 -0.5,65.5 Z M 39.5,74.5 C 44.8797,74.3243 50.213,74.6576 55.5,75.5C 55.5,76.8333 55.5,78.1667 55.5,79.5C 43.1132,77.3024 32.2799,80.3024 23,88.5C 19.7144,86.1909 19.8811,84.0243 23.5,82C 28.5424,78.6426 33.8757,76.1426 39.5,74.5 Z M 87.5,75.5 C 92.4141,74.8124 96.7474,75.9791 100.5,79C 100.002,80.1581 99.1685,80.9915 98,81.5C 94.5449,80.4496 91.0449,80.2829 87.5,81C 85.4785,83.3407 83.8119,85.8407 82.5,88.5C 80.0544,87.573 79.2211,85.9063 80,83.5C 81.3532,79.6499 83.8532,76.9832 87.5,75.5 Z M 46.5,87.5 C 50.2148,87.423 53.8815,87.7564 57.5,88.5C 57.5,89.8333 57.5,91.1667 57.5,92.5C 53.4862,92.3345 49.4862,92.5012 45.5,93C 42,95.1667 39.1667,98 37,101.5C 34.1548,99.0492 34.1548,96.3825 37,93.5C 39.8426,90.8373 43.0093,88.8373 46.5,87.5 Z M 104.5,123.5 C 105.649,123.791 106.316,124.624 106.5,126C 102.972,140.844 93.4719,148.344 78,148.5C 69.3357,148.616 62.169,145.449 56.5,139C 65.2248,137.255 73.8914,135.255 82.5,133C 90.3051,130.685 97.6384,127.518 104.5,123.5 Z"/></g>
<g><path style="opacity:0.939" fill="#ffffff" d="M 199.5,49.5 C 199.5,60.8333 199.5,72.1667 199.5,83.5C 197.722,104.256 190.889,123.256 179,140.5C 164.545,157.427 146.378,164.26 124.5,161C 120.642,158.642 117.642,155.475 115.5,151.5C 117.723,146.383 119.056,141.049 119.5,135.5C 122.91,135.457 126.243,135.957 129.5,137C 135.249,140.75 141.415,143.583 148,145.5C 150.376,145.457 151.876,144.291 152.5,142C 150.505,136.02 146.505,132.02 140.5,130C 133.965,127.866 127.298,126.366 120.5,125.5C 119.98,115.446 118.98,105.446 117.5,95.5C 123.511,97.5001 128.511,96.0001 132.5,91C 130.282,87.9112 127.949,87.9112 125.5,91C 119.409,92.0679 116.076,89.5679 115.5,83.5C 120.339,82.4182 125.006,80.7516 129.5,78.5C 131.766,78.9308 133.266,80.2642 134,82.5C 135.393,87.0947 135.726,91.7613 135,96.5C 133.1,103.865 130.6,111.032 127.5,118C 129.321,121.319 131.988,123.819 135.5,125.5C 136.72,125.113 137.387,124.28 137.5,123C 136.167,121 134.833,119 133.5,117C 139.512,105.43 141.346,93.2632 139,80.5C 138.112,76.4739 135.612,74.4739 131.5,74.5C 125.768,75.4666 120.268,77.1333 115,79.5C 112.685,72.5549 110.352,65.5549 108,58.5C 107.248,55.1064 107.415,51.773 108.5,48.5C 109.365,47.4173 110.365,47.2506 111.5,48C 129.225,58.4299 148.225,61.4299 168.5,57C 178.889,54.6526 189.222,52.1526 199.5,49.5 Z M 150.5,76.5 C 159.055,81.7411 168.389,84.9077 178.5,86C 181.193,88.095 180.86,89.595 177.5,90.5C 167.114,89.5333 157.614,86.2 149,80.5C 148.516,78.8067 149.016,77.4733 150.5,76.5 Z M 152.5,89.5 C 154.709,91.3144 157.043,93.1478 159.5,95C 163.416,96.1024 167.416,96.769 171.5,97C 172.727,98.5874 172.394,99.9207 170.5,101C 165.672,101.629 161.005,100.962 156.5,99C 152.233,96.9756 150.9,93.8089 152.5,89.5 Z"/></g>
</svg>
